<svg width="31" height="35" viewBox="0 0 31 35" fill="none" xmlns="http://www.w3.org/2000/svg">
<path d="M29.0363 12.5195H28.196V8.46384C28.196 8.43857 28.1919 8.4131 28.1886 8.3875C28.1873 8.22644 28.136 8.06832 28.0258 7.94302L21.2776 0.23472C21.2756 0.232741 21.2735 0.232039 21.2722 0.229933C21.232 0.184993 21.1851 0.147586 21.1355 0.115285C21.1208 0.105455 21.106 0.0972203 21.0906 0.0886026C21.0477 0.0652391 21.0021 0.0457695 20.9552 0.031662C20.9425 0.0281511 20.9311 0.0231082 20.9184 0.0196611C20.8673 0.0075325 20.8144 0 20.7609 0H4.17632C3.41898 0 2.8038 0.615941 2.8038 1.37257V12.5191H1.96354C0.88014 12.5191 0.00170898 13.3971 0.00170898 14.4808V24.6823C0.00170898 25.765 0.88014 26.644 1.96354 26.644H2.8038V33.6275C2.8038 34.3842 3.41898 35 4.17632 35H26.8234C27.5801 35 28.196 34.3842 28.196 33.6275V26.6441H29.0363C30.1194 26.6441 30.9979 25.7655 30.9979 24.6824V14.4812C30.998 13.3971 30.1194 12.5195 29.0363 12.5195ZM4.17632 1.37257H20.0746V8.39478C20.0746 8.77415 20.3821 9.08106 20.7609 9.08106H26.8234V12.5195H4.17632V1.37257ZM20.6446 19.024C20.6446 22.1441 18.7529 24.0354 15.9713 24.0354C13.148 24.0354 11.4961 21.9038 11.4961 19.1936C11.4961 16.3416 13.3172 14.2101 16.1265 14.2101C19.0485 14.2101 20.6446 16.3979 20.6446 19.024ZM2.1073 23.8379V14.4928C2.89783 14.3655 3.92819 14.2948 5.01574 14.2948C6.82259 14.2948 7.99409 14.6197 8.91177 15.3111C9.89994 16.0454 10.5214 17.2173 10.5214 18.897C10.5214 20.7182 9.85806 21.9745 8.94063 22.7509C7.93817 23.5839 6.41334 23.9789 4.54969 23.9789C3.43379 23.979 2.64358 23.9084 2.1073 23.8379ZM26.8234 33.2555H4.17632V26.6441H26.8234V33.2555ZM26.9272 22.243C27.5767 22.243 28.2968 22.1011 28.72 21.9323L29.0452 23.6121C28.6496 23.8105 27.7603 24.0213 26.603 24.0213C23.3137 24.0213 21.6194 21.9745 21.6194 19.2639C21.6194 16.0177 23.9345 14.2101 26.814 14.2101C27.9292 14.2101 28.777 14.4359 29.1584 14.6338L28.7204 16.3416C28.2831 16.1583 27.676 15.9886 26.9133 15.9886C25.2052 15.9886 23.878 17.0193 23.878 19.1366C23.8777 21.0426 25.0072 22.243 26.9272 22.243Z" fill="#8C8C8C"/>
<path d="M8.2341 18.9677C8.24821 16.9908 7.09038 15.9463 5.24153 15.9463C4.76149 15.9463 4.45023 15.9885 4.26709 16.0311V22.2571C4.45017 22.2995 4.74713 22.2995 5.01549 22.2995C6.96347 22.3133 8.2341 21.2403 8.2341 18.9677Z" fill="#8C8C8C"/>
<path d="M13.769 19.1506C13.769 21.0147 14.6445 22.3274 16.0843 22.3274C17.5386 22.3274 18.3713 20.9434 18.3713 19.0944C18.3713 17.3857 17.5527 15.9181 16.0702 15.9181C14.6167 15.9185 13.769 17.3019 13.769 19.1506Z" fill="#8C8C8C"/>
</svg>
