<svg width="204" height="78" viewBox="0 0 204 78" fill="none" xmlns="http://www.w3.org/2000/svg">
<path d="M20.2439 47.1714V52H0V26H19.7583V30.8286H6.01341V36.4743H18.1523V41.1543H6.01341V47.1714H20.2439Z" fill="white"/>
<path d="M25.0583 26H31.109V47.0971H44.219V52H25.0583V26Z" fill="white"/>
<path d="M67.8437 47.1714V52H47.5998V26H67.3581V30.8286H53.6132V36.4743H65.7521V41.1543H53.6132V47.1714H67.8437Z" fill="white"/>
<path d="M97.4301 26L86.113 52H80.1369L68.8571 26H75.3934L83.349 44.5714L91.4167 26H97.4301Z" fill="white"/>
<path d="M115.956 46.4286H103.817L101.502 52H95.3015L106.955 26H112.931L124.621 52H118.272L115.956 46.4286ZM114.051 41.86L109.905 31.9057L105.76 41.86H114.051Z" fill="white"/>
<path d="M131.437 30.9029H123.07V26H145.854V30.9029H137.488V52H131.437V30.9029Z" fill="white"/>
<path d="M197.501 52L192.459 44.7571H192.16H186.894V52H180.843V26H192.16C194.476 26 196.48 26.3838 198.173 27.1514C199.891 27.919 201.211 29.0086 202.132 30.42C203.054 31.8314 203.514 33.5029 203.514 35.4343C203.514 37.3657 203.041 39.0371 202.095 40.4486C201.174 41.8352 199.854 42.9 198.136 43.6429L204 52H197.501ZM197.389 35.4343C197.389 33.9733 196.916 32.859 195.97 32.0914C195.023 31.299 193.642 30.9029 191.824 30.9029H186.894V39.9657H191.824C193.642 39.9657 195.023 39.5695 195.97 38.7771C196.916 37.9848 197.389 36.8705 197.389 35.4343Z" fill="white"/>
<g clip-path="url(#clip0)">
<path d="M175.909 17.3672C175.121 17.3672 174.317 17.0625 173.714 16.4684L164.179 6.99258C163.592 6.41367 162.819 6.09375 162 6.09375C161.181 6.09375 160.393 6.41367 159.821 6.99258L150.285 16.4684C149.08 17.6566 147.133 17.6719 145.912 16.4836C144.706 15.2953 144.691 13.3758 145.896 12.1723L155.432 2.69648C157.178 0.959766 159.512 0 162 0C164.488 0 166.822 0.959766 168.568 2.71172L178.103 12.1875C179.309 13.3758 179.293 15.3105 178.088 16.4988C177.485 17.0777 176.697 17.3672 175.909 17.3672ZM168.568 75.2883L178.103 65.8125C179.309 64.6242 179.293 62.6895 178.088 61.5012C176.883 60.3129 174.92 60.3281 173.714 61.5164L164.179 70.9922C163.592 71.5711 162.819 71.891 162 71.891C161.181 71.891 160.393 71.5711 159.821 70.9922L150.285 61.5164C149.08 60.3281 147.133 60.3129 145.912 61.5012C144.706 62.6895 144.691 64.609 145.896 65.8125L155.432 75.2883C157.178 77.0402 159.512 78 162 78C164.488 78 166.822 77.0402 168.568 75.2883ZM172.663 38.8477C172.663 32.9672 167.811 28.1836 161.845 28.1836C155.88 28.1836 151.027 32.9672 151.027 38.8477C151.027 44.7281 155.88 49.5117 161.845 49.5117C167.811 49.5117 172.663 44.7281 172.663 38.8477ZM166.482 38.8477C166.482 41.3613 164.395 43.418 161.845 43.418C159.295 43.418 157.209 41.3613 157.209 38.8477C157.209 36.334 159.295 34.2773 161.845 34.2773C164.395 34.2773 166.482 36.334 166.482 38.8477Z" fill="white"/>
</g>
<defs>
<clipPath id="clip0">
<rect width="34" height="78" fill="white" transform="translate(145)"/>
</clipPath>
</defs>
</svg>
