<svg width="46" height="46" viewBox="0 0 46 46" fill="none" xmlns="http://www.w3.org/2000/svg">
<path d="M15.8125 15.8124H20.125C20.2585 15.8124 20.3893 15.7753 20.5029 15.7051C20.6164 15.6349 20.7082 15.5345 20.7679 15.4151C20.8276 15.2957 20.8528 15.1621 20.8409 15.0291C20.8289 14.8962 20.7801 14.7692 20.7 14.6624L18.5438 11.7874C18.474 11.7025 18.3862 11.634 18.2868 11.587C18.1873 11.54 18.0787 11.5156 17.9688 11.5156C17.8588 11.5156 17.7502 11.54 17.6507 11.587C17.5513 11.634 17.4636 11.7025 17.3938 11.7874L15.2375 14.6624C15.1574 14.7692 15.1086 14.8962 15.0967 15.0291C15.0847 15.1621 15.1099 15.2957 15.1696 15.4151C15.2293 15.5345 15.3211 15.6349 15.4346 15.7051C15.5482 15.7753 15.679 15.8124 15.8125 15.8124ZM17.9688 13.4168L18.6875 14.3749H17.25L17.9688 13.4168Z" fill="black"/>
<path d="M26.0187 15.525C26.0856 15.6144 26.1724 15.687 26.2722 15.737C26.372 15.787 26.4821 15.813 26.5937 15.813C26.7054 15.813 26.8155 15.787 26.9153 15.737C27.0151 15.687 27.1019 15.6144 27.1687 15.525L29.325 12.65C29.4051 12.5432 29.4539 12.4162 29.4658 12.2833C29.4778 12.1504 29.4526 12.0167 29.3929 11.8973C29.3332 11.7779 29.2414 11.6775 29.1279 11.6073C29.0143 11.5372 28.8835 11.5 28.75 11.5H24.4375C24.304 11.5 24.1732 11.5372 24.0596 11.6073C23.9461 11.6775 23.8543 11.7779 23.7946 11.8973C23.7349 12.0167 23.7097 12.1504 23.7217 12.2833C23.7336 12.4162 23.7824 12.5432 23.8625 12.65L26.0187 15.525ZM27.3125 12.9375L26.5937 13.8956L25.875 12.9375H27.3125Z" fill="black"/>
<path d="M43.8438 1.4375H2.15625C1.96563 1.4375 1.78281 1.51323 1.64802 1.64802C1.51323 1.78281 1.4375 1.96563 1.4375 2.15625V43.8438C1.4375 44.0344 1.51323 44.2172 1.64802 44.352C1.78281 44.4868 1.96563 44.5625 2.15625 44.5625H43.8438C44.0344 44.5625 44.2172 44.4868 44.352 44.352C44.4868 44.2172 44.5625 44.0344 44.5625 43.8438V2.15625C44.5625 1.96563 44.4868 1.78281 44.352 1.64802C44.2172 1.51323 44.0344 1.4375 43.8438 1.4375ZM34.5 8.625H10.0625V7.1875H34.5V8.625ZM31.625 18.6875V43.125H23V18.6875H31.625ZM31.625 17.25H12.9375V10.0625H31.625V17.25ZM10.0625 10.0625H11.5V43.125H10.0625V10.0625ZM12.9375 43.125V18.6875H21.5625V43.125H12.9375ZM33.0625 43.125V10.0625H34.5V43.125H33.0625ZM43.125 43.125H35.9375V7.1875C35.937 6.8064 35.7854 6.44106 35.5159 6.17159C35.2464 5.90211 34.8811 5.7505 34.5 5.75H10.0625C9.6814 5.7505 9.31606 5.90211 9.04659 6.17159C8.77711 6.44106 8.6255 6.8064 8.625 7.1875V43.125H2.875V2.875H43.125V43.125Z" fill="black"/>
<path d="M39.5313 23.7187C39.9577 23.7187 40.3746 23.5923 40.7292 23.3554C41.0838 23.1184 41.3602 22.7817 41.5234 22.3877C41.6866 21.9937 41.7293 21.5601 41.6461 21.1418C41.5629 20.7236 41.3575 20.3394 41.056 20.0378C40.7544 19.7362 40.3702 19.5309 39.9519 19.4477C39.5336 19.3645 39.1001 19.4072 38.7061 19.5704C38.3121 19.7336 37.9753 20.01 37.7384 20.3646C37.5015 20.7191 37.375 21.136 37.375 21.5625C37.3756 22.1342 37.603 22.6823 38.0073 23.0865C38.4115 23.4907 38.9596 23.7181 39.5313 23.7187ZM39.5313 20.8438C39.6734 20.8438 39.8124 20.8859 39.9306 20.9649C40.0488 21.0439 40.1409 21.1561 40.1953 21.2874C40.2497 21.4188 40.2639 21.5633 40.2362 21.7027C40.2085 21.8421 40.14 21.9702 40.0395 22.0707C39.939 22.1713 39.8109 22.2397 39.6715 22.2674C39.5321 22.2952 39.3875 22.2809 39.2562 22.2265C39.1249 22.1721 39.0126 22.08 38.9336 21.9618C38.8547 21.8436 38.8125 21.7047 38.8125 21.5625C38.8126 21.3719 38.8884 21.1892 39.0232 21.0544C39.1579 20.9196 39.3407 20.8439 39.5313 20.8438Z" fill="black"/>
<path d="M39.5313 29.4688C39.9577 29.4688 40.3746 29.3423 40.7292 29.1054C41.0838 28.8684 41.3602 28.5317 41.5234 28.1377C41.6866 27.7437 41.7293 27.3101 41.6461 26.8918C41.5629 26.4736 41.3575 26.0894 41.056 25.7878C40.7544 25.4862 40.3702 25.2809 39.9519 25.1977C39.5336 25.1145 39.1001 25.1572 38.7061 25.3204C38.3121 25.4836 37.9753 25.76 37.7384 26.1146C37.5015 26.4691 37.375 26.886 37.375 27.3125C37.3756 27.8842 37.603 28.4323 38.0073 28.8365C38.4115 29.2407 38.9596 29.4681 39.5313 29.4688ZM39.5313 26.5938C39.6734 26.5938 39.8124 26.6359 39.9306 26.7149C40.0488 26.7939 40.1409 26.9061 40.1953 27.0375C40.2497 27.1688 40.2639 27.3133 40.2362 27.4527C40.2085 27.5922 40.14 27.7202 40.0395 27.8207C39.939 27.9213 39.8109 27.9897 39.6715 28.0174C39.5321 28.0452 39.3875 28.0309 39.2562 27.9765C39.1249 27.9221 39.0126 27.83 38.9336 27.7118C38.8547 27.5936 38.8125 27.4547 38.8125 27.3125C38.8126 27.1219 38.8884 26.9392 39.0232 26.8044C39.1579 26.6696 39.3407 26.5939 39.5313 26.5938Z" fill="black"/>
</svg>
