<svg width="31" height="35" viewBox="0 0 31 35" fill="none" xmlns="http://www.w3.org/2000/svg">
<path d="M8.19133 17.9337C8.19133 16.9912 7.53689 16.4287 6.38199 16.4287C5.91087 16.4287 5.59169 16.4741 5.42432 16.5197V19.5461C5.62219 19.591 5.86544 19.6064 6.19904 19.6064C7.43122 19.6064 8.19133 18.9831 8.19133 17.9337Z" fill="#8C8C8C"/>
<path d="M15.3395 16.459C14.8219 16.459 14.4882 16.5045 14.2898 16.5502V23.2555C14.4878 23.3018 14.8072 23.3018 15.0962 23.3018C17.1942 23.3165 18.5627 22.1615 18.5627 19.7132C18.5781 17.5837 17.3309 16.459 15.3395 16.459Z" fill="#8C8C8C"/>
<path d="M29.0365 12.5193H28.1961V8.46423C28.1961 8.43894 28.1921 8.41346 28.1887 8.38785C28.1874 8.22683 28.1362 8.06867 28.0259 7.94336L21.2777 0.234731C21.2757 0.232761 21.2737 0.232062 21.2723 0.229902C21.2321 0.184976 21.1852 0.147612 21.1357 0.115268C21.121 0.105419 21.1062 0.0971585 21.0908 0.0886436C21.0478 0.065196 21.0023 0.0457515 20.9554 0.0317084C20.9427 0.0281499 20.9312 0.0229393 20.9185 0.019635C20.8676 0.00756171 20.8146 0 20.761 0H4.17653C3.41921 0 2.80398 0.61593 2.80398 1.37261V12.519H1.96374C0.880382 12.519 0.00195312 13.3971 0.00195312 14.4808V24.6825C0.00195312 25.7654 0.880382 26.6441 1.96374 26.6441H2.80404V33.6274C2.80404 34.384 3.41927 35 4.17659 35H26.8236C27.5802 35 28.1961 34.3841 28.1961 33.6274V26.6441H29.0366C30.1196 26.6441 30.9982 25.7654 30.9982 24.6825V14.4811C30.9982 13.3975 30.1195 12.5193 29.0365 12.5193ZM4.17653 1.37286H20.0747V8.39528C20.0747 8.77445 20.3824 9.08156 20.761 9.08156H26.8235V12.5198H4.17653V1.37286ZM21.0257 19.6365C21.0257 21.5985 20.3113 22.9513 19.3215 23.788C18.2431 24.6851 16.6005 25.1106 14.5941 25.1106C13.3931 25.1106 12.5418 25.0345 11.9633 24.9588V14.8924C12.8147 14.7559 13.9254 14.6798 15.0963 14.6798C17.0415 14.6798 18.3038 15.0298 19.2926 15.7744C20.3566 16.5652 21.0257 17.827 21.0257 19.6365ZM3.12805 25.0044V14.8924C3.84235 14.7715 4.84641 14.6798 6.26051 14.6798C7.68967 14.6798 8.70866 14.9536 9.39264 15.5013C10.0466 16.018 10.4866 16.8697 10.4866 17.8733C10.4866 18.8772 10.1529 19.7286 9.54426 20.3061C8.75365 21.0513 7.58298 21.3861 6.21412 21.3861C5.91051 21.3861 5.63587 21.3706 5.42395 21.3401V25.0047H3.12805V25.0044ZM26.8236 33.2559H4.17653V26.6441H26.8235V33.2559H26.8236ZM28.8123 16.6566H24.8733V18.9982H28.5533V20.8838H24.8733V25.0045H22.5481V14.7559H28.8123V16.6566Z" fill="#8C8C8C"/>
</svg>
